<svg xmlns="http://www.w3.org/2000/svg" xmlns:xlink="http://www.w3.org/1999/xlink" width="162" height="48" fill="none" xmlns:v="https://vecta.io/nano"><use xlink:href="#B" fill="#fff"/><path d="M156.322 48H5.678A5.68 5.68 0 0 1 0 42.332V5.673C0 2.544 2.547 0 5.678 0h150.644C159.448 0 162 2.544 162 5.673v36.659c0 3.127-2.55 5.668-5.678 5.668z" fill="#a6a6a6"/><use xlink:href="#B" fill="#000"/><path d="M36.175 23.748c-.035-3.87 3.169-5.752 3.315-5.839-1.814-2.644-4.627-3.005-5.615-3.035-2.362-.249-4.651 1.413-5.854 1.413-1.227 0-3.079-1.388-5.078-1.348-2.569.041-4.972 1.527-6.292 3.837-2.721 4.708-.692 11.628 1.914 15.436 1.303 1.866 2.827 3.946 4.822 3.873 1.952-.079 2.68-1.242 5.034-1.242 2.332 0 3.017 1.242 5.051 1.196 2.093-.033 3.413-1.871 4.67-3.753 1.507-2.134 2.113-4.241 2.137-4.35-.049-.019-4.065-1.554-4.106-6.189zm-3.842-11.376c1.048-1.313 1.768-3.097 1.567-4.909-1.518.068-3.419 1.049-4.513 2.332-.967 1.131-1.833 2.983-1.61 4.727 1.708.127 3.462-.86 4.556-2.151z" fill="#fff"/><path d="M156.322 0H75.633l31.604 48h49.085c3.125 0 5.678-2.541 5.678-5.67V5.673C162 2.544 159.45 0 156.322 0z" fill="url(#A)"/><path d="M64.432 37.814h-2.726l-1.493-4.691h-5.192l-1.423 4.691h-2.656l5.146-15.973h3.177l5.167 15.973zm-4.67-6.66l-1.349-4.171c-.144-.426-.413-1.429-.806-3.01h-.049l-.758 3.01-1.328 4.171h4.29zm17.875.759c0 1.958-.532 3.506-1.597 4.645-.953 1.011-2.137 1.516-3.552 1.516-1.526 0-2.623-.545-3.291-1.633v6.045h-2.56V30.083l-.095-3.786h2.251l.144 1.825h.049c.853-1.375 2.148-2.064 3.888-2.064 1.36 0 2.493.537 3.402 1.611s1.36 2.492 1.36 4.244zm-2.607.095c0-1.12-.252-2.045-.758-2.774-.554-.757-1.298-1.136-2.229-1.136a2.67 2.67 0 0 0-1.719.626 2.91 2.91 0 0 0-1.007 1.649c-.079.317-.12.575-.12.778v1.923c0 .838.258 1.543.771 2.123s1.181.865 2.004.865c.964 0 1.713-.374 2.251-1.114s.806-1.722.806-2.94zm15.858-.095c0 1.958-.532 3.506-1.597 4.645-.956 1.011-2.14 1.516-3.552 1.516-1.526 0-2.623-.545-3.291-1.633v6.045h-2.561V30.083l-.095-3.786h2.251l.144 1.825h.049c.853-1.375 2.148-2.064 3.888-2.064 1.358 0 2.493.537 3.402 1.611.904 1.077 1.36 2.492 1.36 4.244zm-2.607.095c0-1.12-.253-2.045-.76-2.774a2.62 2.62 0 0 0-2.227-1.136c-.633 0-1.206.212-1.722.626a2.91 2.91 0 0 0-1.007 1.649c-.079.317-.119.575-.119.778v1.923c0 .838.258 1.543.768 2.123s1.181.865 2.004.865c.964 0 1.716-.374 2.251-1.114.543-.743.812-1.722.812-2.94zm17.424 1.326c0 1.359-.475 2.465-1.42 3.319-1.04.93-2.492 1.399-4.352 1.399-1.719 0-3.098-.331-4.138-.995l.592-2.134a7.13 7.13 0 0 0 3.699.995c.966 0 1.716-.22 2.251-.651s.809-1.014.809-1.741c0-.648-.226-1.193-.665-1.635s-1.176-.854-2.205-1.231c-2.797-1.044-4.198-2.568-4.198-4.575a4.03 4.03 0 0 1 1.483-3.222c.986-.838 2.294-1.256 3.924-1.256 1.453 0 2.667.252 3.628.759l-.644 2.085c-.904-.491-1.928-.735-3.071-.735-.901 0-1.61.222-2.118.664a1.9 1.9 0 0 0-.644 1.448c0 .629.247 1.152.736 1.565.426.377 1.2.789 2.321 1.231 1.377.553 2.387 1.201 3.033 1.942.655.738.98 1.662.98 2.766zm8.486-5.117h-2.821v5.592c0 1.424.497 2.132 1.493 2.132.456 0 .836-.038 1.138-.119l.07 1.944c-.505.19-1.167.282-1.99.282-1.01 0-1.8-.309-2.37-.925s-.853-1.652-.853-3.105v-5.806h-1.681v-1.92h1.681v-2.11l2.514-.759v2.866h2.822v1.928h-.003zm12.705 3.745c0 1.771-.508 3.224-1.518 4.361-1.059 1.172-2.465 1.755-4.22 1.755-1.691 0-3.038-.561-4.043-1.681s-1.504-2.536-1.504-4.241c0-1.785.519-3.246 1.553-4.382s2.43-1.706 4.184-1.706c1.692 0 3.05.561 4.076 1.684.983 1.082 1.472 2.487 1.472 4.212zm-2.653.057c0-1.055-.228-1.961-.684-2.717-.538-.914-1.306-1.372-2.3-1.372-1.027 0-1.811.458-2.346 1.372-.459.757-.687 1.679-.687 2.766 0 1.058.228 1.963.687 2.72.554.914 1.325 1.372 2.324 1.372.978 0 1.746-.466 2.3-1.394.467-.778.706-1.69.706-2.747zm10.975-3.471a4.5 4.5 0 0 0-.806-.07c-.902 0-1.597.339-2.085 1.02-.427.599-.639 1.359-.639 2.275v6.045h-2.56v-7.891l-.073-3.626h2.229l.092 2.205h.071c.271-.757.695-1.37 1.279-1.825.57-.412 1.186-.618 1.849-.618a4.14 4.14 0 0 1 .641.046l.002 2.441zm11.448 2.964c0 .458-.03.846-.095 1.161h-7.679c.03 1.139.402 2.01 1.114 2.609.646.534 1.485.805 2.511.805 1.138 0 2.175-.179 3.107-.545l.402 1.776c-1.089.475-2.379.711-3.862.711-1.786 0-3.188-.526-4.208-1.576s-1.529-2.462-1.529-4.231c0-1.735.475-3.181 1.423-4.336.993-1.231 2.338-1.847 4.029-1.847 1.662 0 2.916.616 3.772 1.847.676.979 1.015 2.189 1.015 3.626zm-2.438-.664c.019-.759-.149-1.413-.497-1.966-.443-.713-1.124-1.068-2.039-1.068-.837 0-1.518.347-2.037 1.044-.426.553-.679 1.218-.757 1.991h5.33zM58.529 16.125h-1.341l-.733-2.305h-2.553l-.7 2.305h-1.306l2.528-7.851h1.561l2.544 7.851zm-2.297-3.273l-.665-2.05c-.071-.209-.198-.7-.396-1.478h-.024l-.375 1.478-.652 2.05h2.113zm8.618-2.389l-2.145 5.66H61.48l-2.075-5.66h1.352l.967 2.994.407 1.432h.035l.407-1.432.956-2.994h1.32zm4.565 5.662l-.092-.651h-.035c-.383.523-.945.781-1.654.781-1.013 0-1.735-.71-1.735-1.665 0-1.397 1.211-2.121 3.31-2.121v-.106c0-.746-.396-1.12-1.176-1.12-.559 0-1.048.141-1.48.42l-.255-.827c.524-.325 1.176-.491 1.947-.491 1.48 0 2.227.781 2.227 2.343v2.085c0 .572.024 1.014.081 1.351h-1.138zm-.174-2.82c-1.398 0-2.096.339-2.096 1.142 0 .594.361.884.861.884.641 0 1.236-.488 1.236-1.152v-.873zm4.027-3.775a.74.74 0 0 1-.747-.757.74.74 0 0 1 .769-.746c.432 0 .779.315.768.746.003.456-.323.757-.79.757zm.654 6.595h-1.257v-5.662h1.257v5.662zm3.492 0h-1.257V7.867h1.257v8.258zm5.349 0l-.095-.651h-.035c-.383.523-.945.781-1.654.781-1.013 0-1.735-.71-1.735-1.665 0-1.397 1.211-2.121 3.31-2.121v-.106c0-.746-.396-1.12-1.176-1.12-.559 0-1.048.141-1.48.42l-.258-.827c.524-.325 1.176-.491 1.947-.491 1.48 0 2.227.781 2.227 2.343v2.085c0 .572.024 1.014.081 1.351h-1.132zm-.176-2.82c-1.398 0-2.096.339-2.096 1.142 0 .594.361.884.861.884.641 0 1.236-.488 1.236-1.152v-.873zm6.324 2.948c-.804 0-1.396-.339-1.781-1.003h-.024l-.073.873H85.96l.046-1.527V7.867h1.26v3.425h.024c.372-.629.977-.944 1.806-.944 1.363 0 2.319 1.166 2.319 2.867.003 1.755-1.059 3.037-2.503 3.037zm-.255-4.917c-.725 0-1.388.629-1.388 1.502v.99c0 .781.595 1.421 1.366 1.421.942 0 1.504-.768 1.504-1.991-.003-1.142-.587-1.923-1.483-1.923zm5.879 4.789h-1.257V7.867h1.257v8.258zm6.851-2.527h-3.777c.024 1.071.733 1.676 1.784 1.676.559 0 1.073-.095 1.526-.269l.196.873c-.535.233-1.165.35-1.898.35-1.773 0-2.821-1.12-2.821-2.853s1.073-3.04 2.677-3.04c1.444 0 2.354 1.071 2.354 2.69.005.222-.005.42-.041.572zm-1.154-.898c0-.873-.442-1.492-1.246-1.492-.722 0-1.293.629-1.377 1.492h2.623zm8.779 3.553c-1.654 0-2.726-1.234-2.726-2.913 0-1.746 1.094-2.994 2.821-2.994 1.629 0 2.726 1.177 2.726 2.902 0 1.771-1.129 3.005-2.821 3.005zm.049-4.987c-.91 0-1.491.849-1.491 2.039 0 1.166.595 2.015 1.48 2.015s1.477-.909 1.477-2.039c0-1.153-.581-2.015-1.466-2.015zm9.536 4.86h-1.257v-3.251c0-1.001-.386-1.502-1.143-1.502-.747 0-1.26.64-1.26 1.386v3.368h-1.257v-4.043l-.046-1.619h1.107l.06.873h.035c.337-.605 1.027-.99 1.795-.99 1.187 0 1.969.909 1.969 2.387l-.003 3.393zm8.233-4.719h-1.385v2.75c0 .7.245 1.05.733 1.05.223 0 .41-.024.56-.06l.035.955c-.244.095-.573.141-.977.141-.992 0-1.583-.548-1.583-1.98v-2.856h-.826v-.944h.826V9.427l1.235-.374v1.41h1.385v.944h-.003zm6.666 4.719h-1.26v-3.227c0-1.014-.383-1.527-1.14-1.527-.652 0-1.257.442-1.257 1.34v3.412h-1.26V7.867h1.26v3.401h.024a1.9 1.9 0 0 1 1.703-.919c1.2 0 1.933.93 1.933 2.411v3.365h-.003zm6.427-2.527h-3.774c.025 1.071.733 1.676 1.781 1.676.56 0 1.073-.095 1.526-.269l.199.873c-.535.233-1.165.35-1.901.35-1.773 0-2.821-1.12-2.821-2.853s1.072-3.04 2.677-3.04c1.445 0 2.354 1.071 2.354 2.69.008.222-.005.42-.041.572zm-1.154-.898c0-.873-.442-1.492-1.246-1.492-.725 0-1.292.629-1.377 1.492h2.623z" fill="#fff"/><defs><linearGradient id="A" x1="118.819" y1="48.124" x2="118.819" y2="4.857" gradientUnits="userSpaceOnUse"><stop stop-color="#1a1a1a" stop-opacity=".1"/><stop offset=".123" stop-color="#212121" stop-opacity=".151"/><stop offset=".308" stop-color="#353535" stop-opacity=".227"/><stop offset=".532" stop-color="#575757" stop-opacity=".318"/><stop offset=".783" stop-color="#858585" stop-opacity=".421"/><stop offset="1" stop-color="#b3b3b3" stop-opacity=".51"/></linearGradient><path id="B" d="M160.924 42.332c0 2.541-2.058 4.597-4.602 4.597H5.677c-2.544 0-4.608-2.058-4.608-4.597V5.67a4.61 4.61 0 0 1 4.608-4.602h150.645a4.6 4.6 0 0 1 4.602 4.602v36.662z"/></defs></svg>