<svg xmlns="http://www.w3.org/2000/svg" xmlns:xlink="http://www.w3.org/1999/xlink" width="152" height="48" fill="none" xmlns:v="https://vecta.io/nano"><path d="M146.674 48H5.326C2.389 48 0 45.459 0 42.332V5.673C-.003 2.544 2.389 0 5.326 0h141.345c2.934 0 5.326 2.544 5.326 5.673v36.659C152 45.459 149.608 48 146.674 48z" fill="#a6a6a6"/><path d="M150.993 42.332c0 2.541-1.93 4.597-4.319 4.597H5.327c-2.386 0-4.325-2.058-4.325-4.597V5.67c0-2.538 1.938-4.602 4.325-4.602h141.344c2.389 0 4.32 2.064 4.32 4.602l.002 36.662z" fill="#000"/><path d="M146.674 0H70.963l29.655 48h46.056c2.935 0 5.326-2.541 5.326-5.67V5.673C152 2.544 149.609 0 146.674 0z" fill="url(#A)"/><path d="M9.967 8.296v32.513L26.27 24.554 9.967 8.296z" fill="url(#B)"/><path d="M30.649 20.184l-6.582-3.821L9.965 8.176v.119l16.303 16.258 4.381-4.369z" fill="url(#C)"/><path d="M9.967 40.808v.119L24.07 32.74l6.582-3.821-4.379-4.366L9.967 40.808z" fill="url(#D)"/><path d="M30.649 20.185l-4.379 4.366 4.379 4.366 7.521-4.366-7.521-4.366z" fill="url(#E)"/><path d="M112.609 30.907c-.613 0-1.171-.114-1.676-.342a3.18 3.18 0 0 1-1.274-1.047h-.103a13.11 13.11 0 0 1 .103 1.57v3.892h-1.423v-13.7h1.158l.197 1.294h.068c.367-.518.793-.892 1.279-1.123s1.045-.344 1.674-.344c1.247 0 2.208.428 2.886 1.285s1.018 2.058 1.018 3.607-.346 2.758-1.034 3.62-1.647 1.288-2.873 1.288zm-.205-8.583c-.961 0-1.655.268-2.084.803s-.648 1.386-.661 2.555v.32c0 1.329.221 2.278.661 2.853s1.147.857 2.119.857c.813 0 1.45-.331 1.909-.992s.691-1.573.691-2.736c0-1.18-.23-2.083-.691-2.712s-1.11-.946-1.944-.946zm7.408 8.409h-1.423V17.31h1.423v13.424zm8.188 0l-.284-1.345h-.067c-.47.594-.937.995-1.404 1.204s-1.047.314-1.747.314c-.931 0-1.663-.241-2.192-.724s-.793-1.169-.793-2.061c0-1.909 1.519-2.91 4.554-3.002l1.595-.052v-.586c0-.743-.159-1.291-.477-1.643s-.827-.532-1.523-.532c-.783 0-1.671.241-2.659.724l-.438-1.096c.465-.252.972-.45 1.523-.594a6.54 6.54 0 0 1 1.66-.217c1.121 0 1.952.25 2.492.751s.81 1.302.81 2.408v6.451L128 30.73zm-3.218-1.009c.885 0 1.582-.244 2.089-.732s.759-1.174.759-2.053v-.854l-1.425.06c-1.132.041-1.95.217-2.449.532s-.75.8-.75 1.462c0 .518.156.911.467 1.182s.747.404 1.309.404zm5.099-8.445h1.528l2.06 5.391.843 2.666h.067l.467-1.505 2.33-6.552h1.528l-4.041 10.766c-.4 1.063-.867 1.82-1.404 2.264s-1.191.667-1.968.667a5.72 5.72 0 0 1-1.288-.146v-1.147c.313.068.667.103 1.056.103.977 0 1.676-.553 2.092-1.657l.523-1.345-3.793-9.505zm-43.652.879c.451.377 1.396 1.166 1.396 2.671 0 1.462-.826 2.156-1.652 2.807-.256.258-.551.534-.551.971s.294.672.513.849l.707.553c.867.732 1.652 1.405 1.652 2.769 0 1.858-1.79 3.737-5.172 3.737-2.853 0-4.228-1.364-4.228-2.828 0-.711.354-1.719 1.514-2.414 1.218-.751 2.872-.849 3.755-.911-.275-.355-.591-.732-.591-1.342 0-.336.1-.534.197-.773l-.629.041c-2.084 0-3.264-1.562-3.264-3.105 0-.911.413-1.92 1.258-2.649 1.12-.93 2.459-1.088 3.523-1.088h4.049l-1.258.713h-1.22zm-1.396 8.781c-.157-.022-.257-.022-.451-.022-.178 0-1.239.041-2.065.317-.432.157-1.693.632-1.693 2.037s1.358 2.413 3.464 2.413c1.887 0 2.891-.911 2.891-2.137-.003-1.009-.653-1.54-2.146-2.609zm.57-3.759c.451-.456.491-1.087.491-1.443 0-1.424-.845-3.639-2.478-3.639-.513 0-1.061.258-1.377.654-.335.415-.432.949-.432 1.464 0 1.326.767 3.52 2.459 3.52a2.02 2.02 0 0 0 1.336-.556zm-11.554 3.441c-3.121 0-4.792-2.449-4.792-4.662 0-2.587 2.1-4.797 5.086-4.797 2.886 0 4.692 2.27 4.692 4.659 0 2.332-1.787 4.8-4.986 4.8zm2.454-1.6c.472-.632.589-1.421.589-2.194 0-1.738-.823-5.055-3.258-5.055a2.73 2.73 0 0 0-1.766.672c-.767.689-.904 1.559-.904 2.408 0 1.952.961 5.171 3.339 5.171.764.003 1.55-.372 2-1.003zm-13.099 1.6c-3.123 0-4.792-2.449-4.792-4.662 0-2.587 2.1-4.797 5.086-4.797 2.886 0 4.692 2.27 4.692 4.659.003 2.332-1.784 4.8-4.986 4.8zm2.457-1.6c.472-.632.589-1.421.589-2.194 0-1.738-.826-5.055-3.261-5.055a2.73 2.73 0 0 0-1.766.672c-.767.689-.904 1.559-.904 2.408 0 1.952.961 5.171 3.339 5.171.767.003 1.55-.372 2.003-1.003zm-8.747 1.291l-2.824.656c-1.145.179-2.17.336-3.256.336-5.451 0-7.521-4.03-7.521-7.187 0-3.851 2.94-7.422 7.975-7.422a11.25 11.25 0 0 1 3.021.418c1.479.418 2.17.933 2.605 1.231l-1.639 1.567-.691.155.494-.795c-.672-.653-1.895-1.866-4.225-1.866-3.118 0-5.47 2.384-5.47 5.858 0 3.732 2.686 7.243 6.989 7.243a5.86 5.86 0 0 0 2.508-.496v-3.192l-2.98.16 1.579-.854h4.184l-.513.496a.45.45 0 0 0-.197.317c-.022.179-.038.754-.038.955l-.003 2.419zm35.554-.57c-.651-.06-.788-.179-.788-.955V17.554l.011-.128c.081-.694.278-.814.888-1.171h-2.824l-1.482.716h1.509v.008-.008 12.255c0 .396-.078.456-.532 1.052h3.493l.732-.437-1.007-.1zm8.034.182l-.645.355c-.648.296-1.315.374-1.903.374-.626 0-1.606-.041-2.608-.77-1.39-.987-1.998-2.682-1.998-4.16 0-3.056 2.47-4.553 4.489-4.553.707 0 1.434.176 2.019.553.98.648 1.233 1.497 1.371 1.95l-4.606 1.874-1.509.119c.489 2.503 2.176 3.962 4.039 3.962.999 0 1.725-.355 2.392-.689l-1.042.984zm-1.844-5.874c.373-.138.567-.255.567-.532 0-.789-.883-1.695-1.941-1.695-.786 0-2.254.61-2.254 2.739 0 .336.04.689.059 1.047l3.569-1.559zm3.736-2.742v1.302h-.156v-1.302h-.43v-.136h1.013v.136h-.427zm1.763 1.299v-1.313h-.008l-.4 1.313h-.124l-.402-1.313h-.005v1.313h-.143v-1.435h.245l.365 1.161h.005l.359-1.161h.248v1.435h-.14z" fill="#f9f9f9"/><path d="M47.232 12.83h-.98c0-.136-.092-.521-.278-1.153h-1.42c-.192.624-.289 1.006-.289 1.153h-.923c0-.081.238-.738.715-1.972l.715-2.039h1.158c0 .117.216.786.648 2.012l.653 1.999zm-1.417-1.741l-.524-1.719h-.049c0 .081-.181.654-.543 1.719h1.115zm5.37 1.741h-.756c0-.084-.281-.529-.842-1.334-.588-.849-.923-1.429-1.004-1.741h-.049c.051.45.076.857.076 1.22l.043 1.855h-.753l.046-2.099-.046-1.915h.91c0 .108.251.545.756 1.304.537.808.845 1.356.926 1.643h.046l-.073-1.234-.043-1.714h.767l-.043 1.915.04 2.099zm4.444-2.145c0 .583-.186 1.093-.559 1.53s-.894.654-1.563.654a29.36 29.36 0 0 1-1.25-.038l.041-2.099-.041-1.915h.537l.391-.008.34-.008c.737 0 1.272.184 1.604.556.332.366.499.811.499 1.329zm-.837.133c0-.393-.113-.727-.343-.998s-.578-.404-1.047-.404c-.089 0-.208.008-.362.027l.03 1.288.03 1.462a1.98 1.98 0 0 0 .399.041c.44 0 .764-.138.977-.412.208-.274.316-.61.316-1.003zm4.932 2.012h-.907c-.238-.727-.419-1.177-.545-1.348s-.332-.255-.613-.255l-.34.003.027 1.6h-.853l.041-2.099-.041-1.915h.529l.383-.008.54-.008c.937 0 1.407.323 1.407.968 0 .513-.267.868-.802 1.069v.046c.205.057.386.22.543.485s.37.754.632 1.462zm-1.147-2.837c0-.409-.262-.613-.786-.613-.192 0-.362.014-.508.043l.032 1.245.286.005c.648.003.975-.225.975-.681zm5.542.757c0 .632-.192 1.152-.578 1.57a1.86 1.86 0 0 1-1.425.624c-.54 0-.991-.19-1.355-.572s-.545-.865-.545-1.454c0-.632.192-1.153.578-1.57a1.86 1.86 0 0 1 1.425-.624 1.8 1.8 0 0 1 1.355.569c.364.382.545.865.545 1.456zm-.845.089c0-.428-.108-.778-.327-1.044s-.489-.401-.81-.401c-.3 0-.551.136-.761.404s-.313.61-.313 1.02c0 .428.111.776.329 1.044s.489.401.807.401c.297 0 .551-.136.761-.407s.313-.607.313-1.017zm2.578 1.991h-.867l.04-2.099-.04-1.915h.867l-.04 1.915.04 2.099zm4.444-2.145c0 .583-.186 1.093-.559 1.53s-.894.654-1.563.654c-.302 0-.718-.014-1.25-.038l.04-2.099-.04-1.915h.537l.391-.008.34-.008c.737 0 1.271.184 1.604.556.332.366.499.811.499 1.329zm-.837.133c0-.393-.113-.727-.343-.998s-.578-.404-1.047-.404a3.06 3.06 0 0 0-.362.027l.03 1.288.03 1.462a1.98 1.98 0 0 0 .4.041c.44 0 .764-.138.977-.412s.316-.61.316-1.003zm6.73 2.012h-.98c0-.136-.092-.521-.278-1.153h-1.417c-.192.624-.289 1.006-.289 1.153h-.923c0-.081.238-.738.715-1.972l.715-2.039h1.158c0 .117.216.786.648 2.012l.651 1.999zm-1.415-1.741L74.25 9.37h-.048c0 .081-.181.654-.543 1.719h1.115zm4.992-1.22c0 .491-.181.854-.545 1.087s-.807.353-1.334.353a3.21 3.21 0 0 1-.205-.005l.032 1.529h-.861l.04-2.099-.04-1.915h.534l.435-.008.559-.008c.389 0 .715.089.983.266.267.171.402.439.402.8zm-.791.168c0-.439-.292-.659-.872-.659-.146 0-.3.016-.459.046l.032 1.321a1.79 1.79 0 0 0 .178.005c.748 0 1.12-.239 1.12-.713zm4.468-.168c0 .491-.181.854-.543 1.087s-.807.353-1.336.353a3.21 3.21 0 0 1-.205-.005l.032 1.529h-.861l.04-2.099-.04-1.915h.534l.435-.008.559-.008c.389 0 .715.089.983.266.267.171.402.439.402.8zm-.791.168c0-.439-.292-.659-.869-.659-.146 0-.3.016-.459.046l.032 1.321a1.79 1.79 0 0 0 .178.005c.745 0 1.118-.239 1.118-.713zm6.8.713c0 .632-.192 1.152-.578 1.57a1.86 1.86 0 0 1-1.425.624c-.54 0-.991-.19-1.355-.572s-.545-.865-.545-1.454c0-.632.192-1.153.578-1.57a1.86 1.86 0 0 1 1.425-.624 1.8 1.8 0 0 1 1.355.569c.365.382.545.865.545 1.456zm-.845.089c0-.428-.108-.778-.327-1.044s-.489-.401-.81-.401c-.3 0-.551.136-.761.404s-.313.61-.313 1.02c0 .428.111.776.329 1.044s.489.401.807.401c.3 0 .551-.136.761-.407s.313-.607.313-1.017zm5.002 1.991h-.756c0-.084-.281-.529-.842-1.334-.588-.849-.923-1.429-1.004-1.741h-.049a10.87 10.87 0 0 1 .076 1.22l.043 1.855h-.753l.046-2.099-.046-1.915h.91c0 .108.254.545.756 1.304.537.808.845 1.356.926 1.643h.046l-.073-1.234-.043-1.714h.767l-.043 1.915.041 2.099z" fill="#f9f9fa"/><defs><linearGradient id="A" x1="111.485" y1="48.124" x2="111.485" y2="4.857" xlink:href="#F"><stop stop-color="#1a1a1a" stop-opacity=".1"/><stop offset=".123" stop-color="#212121" stop-opacity=".151"/><stop offset=".308" stop-color="#353535" stop-opacity=".227"/><stop offset=".532" stop-color="#575757" stop-opacity=".318"/><stop offset=".783" stop-color="#858585" stop-opacity=".421"/><stop offset="1" stop-color="#b3b3b3" stop-opacity=".51"/></linearGradient><linearGradient id="B" x1="18.118" y1="8.296" x2="18.118" y2="40.808" xlink:href="#F"><stop stop-color="#257cb0"/><stop offset=".286" stop-color="#4a93b5"/><stop offset=".767" stop-color="#78bcbb"/><stop offset="1" stop-color="#89cfbd"/></linearGradient><linearGradient id="C" x1="9.967" y1="16.364" x2="30.65" y2="16.364" xlink:href="#F"><stop stop-color="#52c1ad"/><stop offset="1" stop-color="#dee89a"/></linearGradient><linearGradient id="D" x1="20.308" y1="24.552" x2="20.308" y2="40.926" xlink:href="#F"><stop stop-color="#ec413d"/><stop offset=".167" stop-color="#da4452"/><stop offset=".575" stop-color="#b0487a"/><stop offset=".862" stop-color="#954a92"/><stop offset="1" stop-color="#8a4a9d"/></linearGradient><linearGradient id="E" x1="32.221" y1="20.185" x2="32.221" y2="28.918" xlink:href="#F"><stop stop-color="#f58879"/><stop offset=".119" stop-color="#f69079"/><stop offset=".713" stop-color="#fcb877"/><stop offset="1" stop-color="#fec874"/></linearGradient><linearGradient id="F" gradientUnits="userSpaceOnUse"/></defs></svg>