<svg width="5" height="9" viewBox="0 0 5 9" fill="none" xmlns="http://www.w3.org/2000/svg">
<path d="M4.86424 4.18784L1.07685 0.627804C0.989247 0.545398 0.872312 0.5 0.747627 0.5C0.622941 0.5 0.506006 0.545398 0.418408 0.627804L0.139492 0.889915C-0.0419999 1.06071 -0.0419999 1.3383 0.139492 1.50884L3.31986 4.49834L0.135964 7.49116C0.0483657 7.57357 0 7.68342 0 7.80056C0 7.91783 0.0483657 8.02768 0.135964 8.11015L0.414879 8.3722C0.502546 8.4546 0.619413 8.5 0.744098 8.5C0.868783 8.5 0.985719 8.4546 1.07332 8.3722L4.86424 4.80891C4.95205 4.72624 5.00028 4.61587 5 4.49854C5.00028 4.38075 4.95205 4.27044 4.86424 4.18784Z" fill="#C8CACD"/>
</svg>
