<svg xmlns="http://www.w3.org/2000/svg" width="134" height="40" fill="#2c6f76" xmlns:v="https://vecta.io/nano"><path d="M45.948 28.84V13.151h6.401v15.183l9.04-2.922L50.69 1 1.867 3.737l9.565 24.099V12.94h6.401.327l2.764.21c4.323.42 6.178 2.743 6.178 5.828s-4.056 5.195-8.007 5.195c-.453 0-.872-.01-1.262-.027v4.693h-6.002L16.262 40l34.523-11.16h-4.837zm-2.312-4.401v3.598c-13.273 3.404-15.896-3.244-15.896-7.598s4.732-9.519 15.819-6.796l.076 3.891c-7.932-2.042-9.091 1.935-9.091 3.461s1.558 5.974 9.092 3.444M49.28 4.128a3.84 3.84 0 0 1 3.841 3.841c0 2.122-1.72 3.842-3.841 3.842a3.84 3.84 0 0 1-3.841-3.842c0-2.12 1.72-3.841 3.841-3.841m-28.186 14.34c0-1.082-.65-1.811-2.167-1.958l-.969-.074h-.114-.274v3.942l.716-.003c1.386 0 2.808-.825 2.808-1.907m45.699.481a2.61 2.61 0 0 0 1.32.372c.753 0 1.192-.398 1.192-.973 0-.533-.305-.838-1.074-1.133-.931-.33-1.505-.813-1.505-1.616 0-.888.736-1.548 1.844-1.548.583 0 1.006.136 1.26.279l-.203.601a2.26 2.26 0 0 0-1.082-.271c-.779 0-1.075.465-1.075.854 0 .533.347.795 1.133 1.1.965.372 1.455.837 1.455 1.675 0 .879-.651 1.641-1.996 1.641-.55 0-1.15-.161-1.455-.363l.186-.618zm4.663-1.016c.017 1.007.659 1.421 1.404 1.421.532 0 .854-.093 1.133-.211l.127.533c-.262.119-.711.253-1.361.253-1.261 0-2.014-.829-2.014-2.063s.728-2.208 1.92-2.208c1.337 0 1.692 1.176 1.692 1.929 0 .152-.018.271-.025.346h-2.876zm2.181-.533c.009-.474-.194-1.209-1.032-1.209-.752 0-1.082.694-1.142 1.209h2.174zm4.561 2.293c-.194.102-.626.236-1.176.236-1.235 0-2.038-.837-2.038-2.089 0-1.261.862-2.174 2.199-2.174.439 0 .829.11 1.032.211l-.17.575c-.178-.101-.456-.195-.862-.195-.939 0-1.447.694-1.447 1.548 0 .947.609 1.531 1.422 1.531a2.11 2.11 0 0 0 .913-.203l.127.56zm4.299-.964l.033 1.117h-.659l-.043-.668h-.017a1.54 1.54 0 0 1-1.354.761c-.643 0-1.412-.355-1.412-1.793v-2.393h.744v2.267c0 .778.236 1.303.913 1.303.499 0 .847-.347.981-.677.042-.11.067-.245.067-.38v-2.512h.745v2.975zm1.236-1.701l-.034-1.277h.651l.025.803h.034c.186-.55.634-.897 1.133-.897.085 0 .145.009.212.025v.702c-.076-.017-.152-.025-.254-.025-.524 0-.896.398-.998.956a1.99 1.99 0 0 0-.034.347v2.183h-.735v-2.817zm3.596-2.427c.008.253-.178.457-.474.457a.44.44 0 0 1-.448-.457c0-.262.194-.465.465-.465a.44.44 0 0 1 .457.465zm-.829 5.244v-4.094h.744v4.094H86.5zm2.876-5.27v1.176h1.065v.566h-1.065v2.208c0 .508.144.795.558.795.194 0 .339-.025.432-.051l.034.558c-.144.059-.372.101-.66.101-.347 0-.626-.11-.804-.313-.211-.22-.287-.583-.287-1.066v-2.233h-.635v-.566h.635v-.98l.727-.195zm2.335 1.176l.896 2.419.263.837h.017l.263-.854.812-2.402h.787l-1.117 2.918c-.532 1.404-.896 2.123-1.403 2.563-.364.32-.728.447-.914.482l-.186-.627c.186-.059.431-.177.651-.363.202-.161.456-.449.626-.829.033-.077.059-.135.059-.178s-.017-.102-.051-.195L90.9 15.751h.811zM66.793 27.936a2.61 2.61 0 0 0 1.32.371c.753 0 1.192-.396 1.192-.973 0-.533-.305-.838-1.074-1.133-.931-.33-1.505-.813-1.505-1.617 0-.887.736-1.547 1.844-1.547.583 0 1.006.135 1.26.279l-.203.6c-.186-.102-.566-.27-1.082-.27-.779 0-1.075.465-1.075.854 0 .533.347.795 1.133 1.1.965.373 1.455.838 1.455 1.676 0 .879-.651 1.641-1.996 1.641-.55 0-1.15-.16-1.455-.363l.186-.618zm5.144-4.375v1.178h1.066v.566h-1.066v2.207c0 .508.145.795.559.795a1.64 1.64 0 0 0 .432-.051l.033.559c-.144.059-.372.102-.659.102-.348 0-.626-.111-.804-.313-.212-.221-.288-.584-.288-1.066v-2.232h-.634v-.566h.634v-.982l.727-.197zm4.171 5.271l-.059-.516h-.025c-.229.32-.669.607-1.252.607-.829 0-1.252-.584-1.252-1.176 0-.99.88-1.531 2.461-1.521v-.084c0-.34-.093-.949-.931-.949a2.04 2.04 0 0 0-1.065.305l-.169-.49c.339-.221.829-.363 1.345-.363 1.252 0 1.557.854 1.557 1.674v1.531c0 .355.017.703.067.982h-.677zm-.109-2.09c-.813-.018-1.734.127-1.734.922 0 .482.321.711.702.711.533 0 .871-.338.989-.686.025-.076.043-.16.043-.236v-.711zm1.92-.896l-.033-1.107h.659l.043.676h.017c.203-.389.677-.77 1.354-.77.566 0 1.446.338 1.446 1.742v2.445h-.744v-2.361c0-.66-.245-1.209-.947-1.209-.491 0-.872.348-.998.762-.034.092-.051.219-.051.346v2.463h-.745v-2.987zm8.233-3.02v4.947l.033 1.059h-.668l-.034-.711h-.017c-.229.457-.728.803-1.396.803-.99 0-1.751-.836-1.751-2.08-.009-1.361.837-2.199 1.835-2.199.627 0 1.05.295 1.235.625h.017v-2.443h.746zm-.745 3.578c0-.094-.008-.221-.033-.314-.11-.473-.517-.861-1.074-.861-.771 0-1.227.676-1.227 1.58 0 .83.406 1.516 1.21 1.516.499 0 .955-.33 1.091-.889.025-.102.033-.203.033-.322v-.71zm4.248 2.428l-.059-.516h-.025c-.229.32-.669.607-1.253.607-.829 0-1.252-.584-1.252-1.176 0-.99.88-1.531 2.462-1.521v-.084c0-.34-.093-.949-.931-.949a2.04 2.04 0 0 0-1.065.305l-.169-.49c.338-.221.828-.363 1.345-.363 1.252 0 1.557.854 1.557 1.674v1.531c0 .355.017.703.067.982h-.677zm-.111-2.09c-.812-.018-1.733.127-1.733.922 0 .482.321.711.702.711.532 0 .871-.338.989-.686.025-.076.042-.16.042-.236v-.711zm1.922-.728l-.034-1.275h.651l.025.803h.034c.186-.551.634-.896 1.133-.896a.8.8 0 0 1 .212.025v.701a1.06 1.06 0 0 0-.254-.025c-.524 0-.896.398-.998.957a1.98 1.98 0 0 0-.034.346v2.184h-.735v-2.82zm6.303-3.188v4.947l.033 1.059h-.668l-.033-.711h-.018c-.229.457-.728.803-1.396.803-.989 0-1.751-.836-1.751-2.08-.009-1.361.837-2.199 1.835-2.199.627 0 1.05.295 1.235.625h.018v-2.443h.745zm-.744 3.578c0-.094-.009-.221-.034-.314-.11-.473-.517-.861-1.074-.861-.771 0-1.227.676-1.227 1.58 0 .83.406 1.516 1.21 1.516.499 0 .955-.33 1.091-.889.025-.102.034-.203.034-.322v-.71zm1.879 1.666c.22.143.608.297.981.297.541 0 .795-.271.795-.609 0-.355-.212-.551-.762-.754-.735-.262-1.083-.668-1.083-1.158 0-.66.533-1.201 1.413-1.201.414 0 .778.117 1.007.254l-.187.541c-.16-.102-.456-.236-.837-.236-.44 0-.686.252-.686.559 0 .338.245.49.778.693.711.27 1.074.625 1.074 1.234 0 .719-.559 1.227-1.531 1.227-.448 0-.862-.111-1.15-.279l.188-.568zm10.263.575c-.271.137-.813.271-1.506.271-1.607 0-2.816-1.016-2.816-2.885 0-1.785 1.209-2.994 2.978-2.994.71 0 1.158.152 1.354.254l-.179.6c-.278-.135-.676-.236-1.149-.236-1.337 0-2.225.855-2.225 2.352 0 1.396.803 2.293 2.19 2.293.448 0 .905-.094 1.201-.238l.152.583zm4.509-1.895c0 1.514-1.049 2.174-2.038 2.174-1.108 0-1.963-.813-1.963-2.105 0-1.371.896-2.174 2.03-2.174 1.176 0 1.971.853 1.971 2.105zm-3.248.043c0 .896.516 1.574 1.243 1.574.711 0 1.243-.67 1.243-1.592 0-.693-.347-1.572-1.226-1.572s-1.26.811-1.26 1.59zm7.614.922l.033 1.117h-.659l-.042-.67h-.018a1.54 1.54 0 0 1-1.353.762c-.644 0-1.413-.355-1.413-1.793v-2.393h.744v2.266c0 .777.237 1.303.914 1.303.499 0 .846-.348.981-.676.042-.111.067-.246.067-.381v-2.512h.744v2.977zm1.237-1.869l-.034-1.107h.66l.042.676h.017c.203-.389.678-.77 1.354-.77.567 0 1.447.338 1.447 1.742v2.445h-.745v-2.361c0-.66-.245-1.209-.947-1.209-.49 0-.871.348-.998.762-.033.092-.051.219-.051.346v2.463h-.744v-2.987zm7.614 2.834c-.194.102-.626.236-1.176.236-1.235 0-2.039-.838-2.039-2.09 0-1.26.863-2.174 2.199-2.174.44 0 .829.109 1.032.211l-.169.576c-.178-.102-.457-.195-.863-.195-.938 0-1.446.693-1.446 1.549 0 .947.609 1.531 1.422 1.531.423 0 .702-.111.913-.203l.127.559zm1.701-5.094c.009.254-.178.457-.474.457-.262 0-.448-.203-.448-.457 0-.262.194-.465.465-.465a.44.44 0 0 1 .457.465zm-.829 5.246v-4.094h.745v4.094h-.745zm1.981-6.006h.744v6.006h-.744v-6.006zm-1.935-8.622h-.777v-.28h1.893v.28h-.781v2.276h-.334v-2.276zm3.554 1.153l-.038-1.104h-.011l-.322.971-.452 1.24h-.25l-.413-1.217-.296-.994h-.008l-.05 1.13-.068 1.096h-.314l.179-2.556h.421l.436 1.236.259.861h.011c.064-.258.155-.539.27-.861l.455-1.236h.421l.159 2.556h-.322l-.067-1.122z"/></svg>